<?xml version="1.0" encoding="UTF-8"?> <svg xmlns="http://www.w3.org/2000/svg" width="302" height="211" viewBox="0 0 302 211" fill="none"><path d="M257.309 196.471H192.949V209.569H257.309V196.471Z" fill="#969BD0"></path><path d="M143.469 84.0166H139.218V138.179H143.469V84.0166Z" fill="#D8D7EC"></path><path d="M143.469 163.077H139.218V209.451H143.469V163.077Z" fill="#D8D7EC"></path><path fill-rule="evenodd" clip-rule="evenodd" d="M192.949 196.471H197.2V181.721H192.949V196.471ZM197.2 163.077V107.853H192.949V163.077H197.2Z" fill="#D8D7EC"></path><path d="M127.408 38.8226H123.157V209.451H127.408V38.8226Z" fill="#D8D7EC"></path><path fill-rule="evenodd" clip-rule="evenodd" d="M123.158 95.2266L71.3164 146.439V209.451H123.158V95.2266Z" fill="#969BD0"></path><path fill-rule="evenodd" clip-rule="evenodd" d="M270.057 3.43797C272.843 1.25549 276.304 0 280.099 0C289.229 0 296.632 7.39676 296.632 16.5207H295.215C295.215 8.18054 288.447 1.4173 280.099 1.4173C276.488 1.4173 273.222 2.65619 270.631 4.79516L270.301 5.06699L269.907 4.90286C268.576 4.3488 267.016 4.0133 265.338 4.0133C260.758 4.0133 256.851 6.46684 254.729 10.0386L254.415 10.5672L253.847 10.3309C252.483 9.76285 250.925 9.3233 249.278 9.3233C243.292 9.3233 238.413 14.1985 238.413 20.1787H236.996C236.996 13.4148 242.51 7.906 249.278 7.906C250.938 7.906 252.485 8.29294 253.831 8.80017C256.257 5.10039 260.457 2.596 265.338 2.596C267.042 2.596 268.646 2.90692 270.057 3.43797Z" fill="#969DCA"></path><path fill-rule="evenodd" clip-rule="evenodd" d="M122.885 38.1687C123.149 38.0585 123.453 38.1177 123.656 38.3188L193.448 107.349C193.582 107.482 193.658 107.663 193.658 107.853V209.451H192.241V108.148L123.867 40.5203V209.451H122.449V38.8226C122.449 38.5367 122.621 38.2788 122.885 38.1687Z" fill="#2C3972"></path><path fill-rule="evenodd" clip-rule="evenodd" d="M256.718 208.742V115.641H258.135V209.451C258.135 209.842 257.818 210.159 257.427 210.159H71.3161C70.9247 210.159 70.6074 209.842 70.6074 209.451V146.439H72.0247V208.742H256.718Z" fill="#2C3972"></path><path fill-rule="evenodd" clip-rule="evenodd" d="M138.391 84.0166C138.391 83.6253 138.708 83.308 139.099 83.308H152.798C153.189 83.308 153.506 83.6253 153.506 84.0166V138.179H152.089V84.7253H139.808V138.179H138.391V84.0166Z" fill="#2C3972"></path><path fill-rule="evenodd" clip-rule="evenodd" d="M152.798 111.511H139.1V110.094H152.798V111.511Z" fill="#2C3972"></path><path fill-rule="evenodd" clip-rule="evenodd" d="M158.467 104.195C158.467 103.803 158.784 103.486 159.175 103.486H172.874C173.265 103.486 173.583 103.803 173.583 104.195V138.179H172.165V104.903H159.884V138.179H158.467V104.195Z" fill="#2C3972"></path><path fill-rule="evenodd" clip-rule="evenodd" d="M172.873 121.777H159.175V120.36H172.873V121.777Z" fill="#2C3972"></path><path fill-rule="evenodd" clip-rule="evenodd" d="M132.486 138.179C132.486 137.787 132.804 137.47 133.195 137.47H177.951C178.343 137.47 178.66 137.787 178.66 138.179C178.66 138.57 178.343 138.887 177.951 138.887H133.195C132.804 138.887 132.486 138.57 132.486 138.179Z" fill="#2C3972"></path><path fill-rule="evenodd" clip-rule="evenodd" d="M210.78 119.535C210.78 119.143 211.098 118.826 211.489 118.826H257.426C257.818 118.826 258.135 119.143 258.135 119.535V138.061C258.135 138.452 257.818 138.769 257.426 138.769H211.489C211.098 138.769 210.78 138.452 210.78 138.061V119.535ZM212.198 120.243V137.352H256.717V120.243H212.198Z" fill="#2C3972"></path><path fill-rule="evenodd" clip-rule="evenodd" d="M257.426 125.789H211.489V124.372H257.426V125.789Z" fill="#2C3972"></path><path fill-rule="evenodd" clip-rule="evenodd" d="M227.55 125.081V138.179H226.133V125.081H227.55Z" fill="#2C3972"></path><path fill-rule="evenodd" clip-rule="evenodd" d="M242.783 125.081V138.179H241.365V125.081H242.783Z" fill="#2C3972"></path><path fill-rule="evenodd" clip-rule="evenodd" d="M192.24 163.077C192.24 162.685 192.558 162.368 192.949 162.368H238.886C239.277 162.368 239.595 162.685 239.595 163.077V181.603C239.595 181.994 239.277 182.311 238.886 182.311H192.949C192.558 182.311 192.24 181.994 192.24 181.603V163.077ZM193.658 163.785V180.894H238.177V163.785H193.658Z" fill="#2C3972"></path><path fill-rule="evenodd" clip-rule="evenodd" d="M238.886 169.331H192.949V167.914H238.886V169.331Z" fill="#2C3972"></path><path fill-rule="evenodd" clip-rule="evenodd" d="M209.009 168.623V181.721H207.592V168.623H209.009Z" fill="#2C3972"></path><path fill-rule="evenodd" clip-rule="evenodd" d="M224.361 168.623V181.721H222.943V168.623H224.361Z" fill="#2C3972"></path><path fill-rule="evenodd" clip-rule="evenodd" d="M192.95 155.171H71.3164V153.754H192.95V155.171Z" fill="#2C3972"></path><path fill-rule="evenodd" clip-rule="evenodd" d="M138.51 163.077C138.51 162.685 138.827 162.368 139.218 162.368H171.575C171.967 162.368 172.284 162.685 172.284 163.077V209.451C172.284 209.842 171.967 210.159 171.575 210.159H139.218C138.827 210.159 138.51 209.842 138.51 209.451V163.077ZM139.927 163.785V208.742H170.867V163.785H139.927Z" fill="#2C3972"></path><path fill-rule="evenodd" clip-rule="evenodd" d="M150.436 209.451V163.077H151.853V209.451H150.436Z" fill="#2C3972"></path><path fill-rule="evenodd" clip-rule="evenodd" d="M171.456 200.955H151.145V199.538H171.456V200.955Z" fill="#2C3972"></path><path fill-rule="evenodd" clip-rule="evenodd" d="M171.456 172.163H151.145V170.746H171.456V172.163Z" fill="#2C3972"></path><path fill-rule="evenodd" clip-rule="evenodd" d="M123.158 95.2267L64.4668 153.283V143.961L123.158 85.7867V95.2267Z" fill="#D8D7EC"></path><path fill-rule="evenodd" clip-rule="evenodd" d="M123.43 85.1325C123.694 85.2426 123.866 85.5006 123.866 85.7866V95.2266C123.866 95.4159 123.79 95.5973 123.656 95.7305L64.9648 153.786C64.7615 153.988 64.4574 154.047 64.1935 153.937C63.9296 153.826 63.7578 153.569 63.7578 153.283V143.961C63.7578 143.772 63.8333 143.59 63.9676 143.457L122.659 85.2833C122.862 85.082 123.166 85.0225 123.43 85.1325ZM65.1751 144.256V151.585L122.449 94.9309V87.4868L65.1751 144.256Z" fill="#2C3972"></path><path fill-rule="evenodd" clip-rule="evenodd" d="M77.8105 146.439H117.843V106.909L77.8105 146.439Z" fill="white"></path><path fill-rule="evenodd" clip-rule="evenodd" d="M118.116 106.255C118.38 106.365 118.552 106.623 118.552 106.909V146.439C118.552 146.83 118.234 147.147 117.843 147.147H77.8102C77.5228 147.147 77.2638 146.974 77.1547 146.708C77.0455 146.442 77.1078 146.136 77.3123 145.934L117.345 106.404C117.548 106.204 117.852 106.145 118.116 106.255ZM79.5365 145.73H117.134V108.604L79.5365 145.73Z" fill="#2C3972"></path><path d="M112.175 163.077H83.5967V200.129H112.175V163.077Z" fill="white"></path><path fill-rule="evenodd" clip-rule="evenodd" d="M82.8887 163.077C82.8887 162.685 83.2059 162.368 83.5973 162.368H112.175C112.567 162.368 112.884 162.685 112.884 163.077V200.129C112.884 200.52 112.567 200.837 112.175 200.837H83.5973C83.2059 200.837 82.8887 200.52 82.8887 200.129V163.077ZM84.306 163.785V199.42H111.467V163.785H84.306Z" fill="#2C3972"></path><path fill-rule="evenodd" clip-rule="evenodd" d="M98.595 174.405V200.247H97.1777V174.405H98.595Z" fill="#2C3972"></path><path fill-rule="evenodd" clip-rule="evenodd" d="M112.056 175.113H83.5967V173.696H112.056V175.113Z" fill="#2C3972"></path><path fill-rule="evenodd" clip-rule="evenodd" d="M200.861 106.201H268.527L269.826 102.425L190.115 23.4826H150.672H139.336H117.135L200.861 106.201Z" fill="#969BD0"></path><path fill-rule="evenodd" clip-rule="evenodd" d="M117.135 32.9226L200.861 115.641H273.723V106.201H200.861L117.135 23.4826V32.9226Z" fill="#D8D7EC"></path><path fill-rule="evenodd" clip-rule="evenodd" d="M116.862 22.8288C117.126 22.7186 117.43 22.7776 117.633 22.9785L201.153 105.492H273.723C274.115 105.492 274.432 105.809 274.432 106.201V115.641C274.432 116.032 274.115 116.349 273.723 116.349H200.862C200.675 116.349 200.496 116.276 200.364 116.145L116.637 33.4268C116.503 33.2936 116.427 33.1121 116.427 32.9226V23.4826C116.427 23.1968 116.598 22.9389 116.862 22.8288ZM117.844 25.1789V32.6266L201.153 114.932H273.015V106.909H200.862C200.675 106.909 200.496 106.836 200.364 106.705L117.844 25.1789Z" fill="#2C3972"></path><path fill-rule="evenodd" clip-rule="evenodd" d="M200.152 115.641V106.201H201.57V115.641H200.152Z" fill="#2C3972"></path><path fill-rule="evenodd" clip-rule="evenodd" d="M117.135 22.774H190.115C190.301 22.774 190.48 22.8476 190.613 22.9789L274.221 105.697L273.224 106.704L189.823 24.1913H117.135V22.774Z" fill="#2C3972"></path><path fill-rule="evenodd" clip-rule="evenodd" d="M118.349 116.441C118.623 116.72 118.62 117.168 118.342 117.443L100.392 135.143C100.113 135.418 99.6644 135.415 99.3896 135.136C99.1148 134.858 99.118 134.409 99.3966 134.134L117.346 116.434C117.625 116.159 118.074 116.162 118.349 116.441Z" fill="#2C3972"></path><path fill-rule="evenodd" clip-rule="evenodd" d="M118.348 126.235C118.623 126.514 118.619 126.963 118.34 127.238L110.192 135.262C109.913 135.536 109.465 135.533 109.19 135.254C108.915 134.975 108.919 134.526 109.198 134.252L117.346 126.228C117.625 125.953 118.074 125.957 118.348 126.235Z" fill="#2C3972"></path><path fill-rule="evenodd" clip-rule="evenodd" d="M169.449 37.4066C169.449 37.0153 169.766 36.698 170.158 36.698H204.168C204.559 36.698 204.877 37.0153 204.877 37.4066C204.877 37.798 204.559 38.1153 204.168 38.1153H170.158C169.766 38.1153 169.449 37.798 169.449 37.4066Z" fill="#2C3972"></path><path fill-rule="evenodd" clip-rule="evenodd" d="M162.363 68.9126C162.363 68.5213 162.681 68.204 163.072 68.204H197.082C197.473 68.204 197.791 68.5213 197.791 68.9126C197.791 69.304 197.473 69.6213 197.082 69.6213H163.072C162.681 69.6213 162.363 69.304 162.363 68.9126Z" fill="#2C3972"></path><path fill-rule="evenodd" clip-rule="evenodd" d="M219.401 86.8486C219.401 86.4573 219.719 86.14 220.11 86.14H254.12C254.511 86.14 254.829 86.4573 254.829 86.8486C254.829 87.24 254.511 87.5573 254.12 87.5573H220.11C219.719 87.5573 219.401 87.24 219.401 86.8486Z" fill="#2C3972"></path><path fill-rule="evenodd" clip-rule="evenodd" d="M277.62 88.3826C279.51 88.3826 281.045 89.5626 281.635 91.3326L299.467 144.433C299.703 145.141 299.939 145.849 300.175 146.557C300.766 148.563 301.002 150.687 301.002 152.929C301.002 165.791 290.61 176.293 277.62 176.293C264.748 176.293 254.238 165.909 254.238 152.929C254.238 150.687 254.593 148.563 255.183 146.557C255.419 145.849 255.537 145.141 255.892 144.433L273.723 91.3326C274.077 89.6806 275.731 88.3826 277.62 88.3826Z" fill="#F2FAF4"></path><path fill-rule="evenodd" clip-rule="evenodd" d="M277.62 89.0913C276.032 89.0913 274.693 90.1869 274.416 91.4812L274.407 91.5203L256.547 144.705L256.525 144.75C256.376 145.048 256.272 145.355 256.173 145.693C256.144 145.793 256.114 145.901 256.082 146.014C256.015 146.256 255.942 146.519 255.859 146.768C255.287 148.714 254.947 150.767 254.947 152.929C254.947 165.514 265.137 175.584 277.62 175.584C290.217 175.584 300.293 165.401 300.293 152.929C300.293 150.74 300.063 148.69 299.499 146.769L298.795 144.658L280.963 91.5569C280.463 90.0591 279.187 89.0913 277.62 89.0913ZM273.039 91.1431C273.488 89.154 275.444 87.674 277.62 87.674C279.831 87.674 281.625 89.0656 282.307 91.107M282.307 91.1084L300.138 144.207L300.851 146.344L300.855 146.357C301.469 148.443 301.71 150.638 301.71 152.929C301.71 166.18 291.003 177.001 277.62 177.001C264.359 177.001 253.529 166.303 253.529 152.929C253.529 150.611 253.896 148.419 254.503 146.357L254.506 146.344L254.51 146.332C254.584 146.112 254.641 145.906 254.703 145.682C254.737 145.561 254.772 145.434 254.812 145.296C254.916 144.94 255.043 144.555 255.235 144.162L273.039 91.1431" fill="#009821"></path><path fill-rule="evenodd" clip-rule="evenodd" d="M267.228 209.451C267.228 209.059 267.545 208.742 267.936 208.742H287.185C287.576 208.742 287.894 209.059 287.894 209.451C287.894 209.842 287.576 210.159 287.185 210.159H267.936C267.545 210.159 267.228 209.842 267.228 209.451Z" fill="#009821"></path><path fill-rule="evenodd" clip-rule="evenodd" d="M34.002 209.395C34.002 209.003 34.3192 208.686 34.7106 208.686H52.7106C53.102 208.686 53.4193 209.003 53.4193 209.395C53.4193 209.786 53.102 210.103 52.7106 210.103H34.7106C34.3192 210.103 34.002 209.786 34.002 209.395Z" fill="#2C3972"></path><path fill-rule="evenodd" clip-rule="evenodd" d="M277.62 130.626C278.011 130.626 278.328 130.943 278.328 131.335V209.451C278.328 209.842 278.011 210.159 277.62 210.159C277.228 210.159 276.911 209.842 276.911 209.451V131.335C276.911 130.943 277.228 130.626 277.62 130.626Z" fill="#009821"></path><path fill-rule="evenodd" clip-rule="evenodd" d="M286.869 157.058C287.195 157.275 287.284 157.715 287.067 158.041L278.21 171.375C277.994 171.701 277.554 171.789 277.228 171.573C276.902 171.356 276.813 170.917 277.03 170.591L285.886 157.257C286.103 156.931 286.543 156.842 286.869 157.058Z" fill="#009821"></path><path fill-rule="evenodd" clip-rule="evenodd" d="M272.739 135.229C273.065 135.012 273.505 135.1 273.722 135.425L278.21 142.151C278.427 142.477 278.339 142.917 278.013 143.134C277.688 143.351 277.248 143.264 277.031 142.938L272.543 136.212C272.326 135.886 272.414 135.446 272.739 135.229Z" fill="#009821"></path><path fill-rule="evenodd" clip-rule="evenodd" d="M257.427 197.179H192.949V195.762H257.427V197.179Z" fill="#2C3972"></path><path fill-rule="evenodd" clip-rule="evenodd" d="M257.427 203.787H192.949V202.37H257.427V203.787Z" fill="#2C3972"></path><path d="M7.58114 133.395H80.4646C84.2683 133.395 87.3358 136.456 87.3358 140.253V172.096C87.3358 175.892 84.2683 178.954 80.4646 178.954H7.58114C3.77745 178.954 0.709961 175.892 0.709961 172.096V140.253C0.709961 136.518 3.77745 133.395 7.58114 133.395Z" fill="#D8D7EC"></path><path fill-rule="evenodd" clip-rule="evenodd" d="M7.58118 134.105C4.17249 134.105 1.42 136.907 1.42 140.253V172.096C1.42 175.499 4.16837 178.244 7.58118 178.244H80.4646C83.8774 178.244 86.6258 175.499 86.6258 172.096V140.253C86.6258 136.85 83.8774 134.105 80.4646 134.105H7.58118ZM0 140.253C0 136.128 3.3825 132.685 7.58118 132.685H80.4646C84.6592 132.685 88.0458 136.063 88.0458 140.253V172.096C88.0458 176.286 84.6592 179.664 80.4646 179.664H7.58118C3.38662 179.664 0 176.286 0 172.096V140.253Z" fill="#2C3972"></path><path fill-rule="evenodd" clip-rule="evenodd" d="M44.7335 178.954V209.204H43.3135V178.954H44.7335Z" fill="#2C3972"></path><path d="M21.0063 164.635C19.7583 164.635 18.6703 164.435 17.7423 164.035C16.8303 163.619 16.1263 163.083 15.6303 162.427C15.1503 161.771 14.8943 161.067 14.8623 160.315C14.8623 160.187 14.9103 160.075 15.0063 159.979C15.1023 159.883 15.2223 159.835 15.3663 159.835H15.8463C16.1343 159.835 16.3103 159.995 16.3743 160.315C16.4863 161.083 16.9263 161.755 17.6943 162.331C18.4623 162.907 19.5663 163.195 21.0063 163.195C22.5263 163.195 23.6543 162.923 24.3903 162.379C25.1423 161.819 25.5183 161.043 25.5183 160.051C25.5183 159.443 25.3343 158.947 24.9663 158.563C24.6143 158.163 24.0943 157.819 23.4063 157.531C22.7183 157.227 21.6783 156.851 20.2863 156.403C19.0543 156.003 18.0863 155.611 17.3823 155.227C16.6943 154.843 16.1823 154.371 15.8463 153.811C15.5103 153.251 15.3423 152.539 15.3423 151.675C15.3423 150.859 15.5583 150.123 15.9903 149.467C16.4383 148.811 17.0783 148.299 17.9103 147.931C18.7423 147.547 19.7343 147.355 20.8863 147.355C22.0703 147.355 23.0863 147.571 23.9343 148.003C24.7823 148.419 25.4223 148.955 25.8543 149.611C26.2863 150.251 26.5183 150.899 26.5503 151.555C26.5503 151.683 26.5023 151.795 26.4063 151.891C26.3263 151.987 26.2063 152.035 26.0463 152.035H25.5663C25.4543 152.035 25.3423 152.003 25.2303 151.939C25.1183 151.859 25.0543 151.731 25.0383 151.555C24.9423 150.755 24.5103 150.099 23.7423 149.587C22.9903 149.059 22.0383 148.795 20.8863 148.795C19.6543 148.795 18.6703 149.035 17.9343 149.515C17.2143 149.995 16.8543 150.715 16.8543 151.675C16.8543 152.299 17.0143 152.819 17.3343 153.235C17.6703 153.635 18.1663 153.987 18.8223 154.291C19.4783 154.579 20.4463 154.931 21.7263 155.347C23.0383 155.763 24.0623 156.163 24.7983 156.547C25.5343 156.931 26.0863 157.395 26.4543 157.939C26.8383 158.483 27.0303 159.187 27.0303 160.051C27.0303 161.491 26.4943 162.619 25.4223 163.435C24.3503 164.235 22.8783 164.635 21.0063 164.635Z" fill="#2C3972"></path><path d="M36.1856 164.635C32.0736 164.635 29.9616 162.427 29.8496 158.011C29.8336 157.531 29.8256 156.859 29.8256 155.995C29.8256 155.131 29.8336 154.459 29.8496 153.979C29.9136 151.803 30.5056 150.155 31.6256 149.035C32.7456 147.915 34.2656 147.355 36.1856 147.355C38.1056 147.355 39.6256 147.915 40.7456 149.035C41.8656 150.155 42.4576 151.803 42.5216 153.979C42.5536 154.939 42.5696 155.611 42.5696 155.995C42.5696 156.379 42.5536 157.051 42.5216 158.011C42.4096 162.427 40.2976 164.635 36.1856 164.635ZM36.1856 163.195C37.6256 163.195 38.7696 162.763 39.6176 161.899C40.4816 161.019 40.9456 159.683 41.0096 157.891C41.0416 156.931 41.0576 156.299 41.0576 155.995C41.0576 155.691 41.0416 155.059 41.0096 154.099C40.9456 152.307 40.4816 150.979 39.6176 150.115C38.7536 149.235 37.6096 148.795 36.1856 148.795C34.7616 148.795 33.6176 149.235 32.7536 150.115C31.8896 150.979 31.4256 152.307 31.3616 154.099C31.3456 154.579 31.3376 155.211 31.3376 155.995C31.3376 156.779 31.3456 157.411 31.3616 157.891C31.4256 159.683 31.8816 161.019 32.7296 161.899C33.5936 162.763 34.7456 163.195 36.1856 163.195Z" fill="#2C3972"></path><path d="M46.9162 164.395C46.7562 164.395 46.6282 164.347 46.5322 164.251C46.4362 164.155 46.3882 164.027 46.3882 163.867V148.123C46.3882 147.963 46.4362 147.835 46.5322 147.739C46.6282 147.643 46.7562 147.595 46.9162 147.595H47.3722C47.5322 147.595 47.6602 147.643 47.7562 147.739C47.8522 147.835 47.9002 147.963 47.9002 148.123V162.955H56.1802C56.3562 162.955 56.4922 163.003 56.5882 163.099C56.6842 163.195 56.7322 163.331 56.7322 163.507V163.867C56.7322 164.027 56.6762 164.155 56.5642 164.251C56.4682 164.347 56.3402 164.395 56.1802 164.395H46.9162Z" fill="#2C3972"></path><path d="M60.0646 164.395C59.9046 164.395 59.7766 164.347 59.6806 164.251C59.5846 164.155 59.5366 164.027 59.5366 163.867V148.147C59.5366 147.987 59.5846 147.859 59.6806 147.763C59.7766 147.651 59.9046 147.595 60.0646 147.595H65.1766C66.8406 147.595 68.1526 147.843 69.1126 148.339C70.0886 148.819 70.7766 149.531 71.1766 150.475C71.5926 151.419 71.8166 152.619 71.8486 154.075C71.8646 154.555 71.8726 155.187 71.8726 155.971C71.8726 156.771 71.8646 157.411 71.8486 157.891C71.8166 159.427 71.5926 160.667 71.1766 161.611C70.7766 162.539 70.1046 163.235 69.1606 163.699C68.2166 164.163 66.9286 164.395 65.2966 164.395H60.0646ZM65.1766 162.955C66.4566 162.955 67.4646 162.787 68.2006 162.451C68.9366 162.099 69.4646 161.555 69.7846 160.819C70.1206 160.067 70.3046 159.051 70.3366 157.771C70.3526 157.291 70.3606 156.691 70.3606 155.971C70.3606 155.267 70.3526 154.675 70.3366 154.195C70.3046 152.403 69.8806 151.099 69.0646 150.283C68.2646 149.451 66.9286 149.035 65.0566 149.035H61.0486V162.955H65.1766Z" fill="#2C3972"></path></svg> 